<svg width="81" height="156" viewBox="0 0 81 156" fill="none" xmlns="http://www.w3.org/2000/svg">
<g id="Group">
<path id="Vector" fill-rule="evenodd" clip-rule="evenodd" d="M1.24064 138.021C1.24064 138.021 0.760068 136.935 0.554933 136.268C0.349798 135.601 0.115852 135.141 0.093956 134.251C0.0720595 133.361 0.0674512 123.471 0.145817 121.863C0.224183 120.256 0.606795 115.134 0.650588 114.171C0.694381 113.208 1.29941 106.506 1.46536 104.823C1.63131 103.14 2.02315 98.7926 2.02315 98.7926C2.02315 98.7926 2.0462 97.5121 2.39308 96.9152C2.73997 96.3183 3.345 95.4371 4.02495 95.0194C4.70489 94.6016 5.29263 94.1703 6.44508 93.957C7.59752 93.7438 7.57678 93.7262 8.8364 93.7097C10.096 93.6931 15.3465 93.7515 15.3465 93.7515C15.3465 93.7515 19.2095 93.6542 20.3493 93.6649L27.9958 93.7428L33.1276 93.7477C33.1276 93.7477 35.8543 93.811 36.6829 94.216C37.5115 94.6211 38.3424 95.3163 38.8276 95.8383C39.262 96.2998 39.5791 96.8322 39.7588 97.4021C39.9743 98.0058 40.3108 99.5093 40.5067 100.606C40.7026 101.702 40.6865 103.902 40.8582 105.11C41.0299 106.319 41.1336 107.999 41.1382 108.616C41.1428 109.232 40.9158 109.569 40.8017 110.723C40.6876 111.877 38.3608 131.803 38.3608 131.803L30.424 138.62C30.424 138.62 29.7717 138.706 26.9113 138.849C24.051 138.993 20.0819 139.028 18.7071 138.989C17.3322 138.95 13.7631 138.839 12.7144 138.788C11.6656 138.737 8.33509 138.557 8.33509 138.557L1.24064 138.021Z" fill="#FAC963"/>
<path id="Vector_2" fill-rule="evenodd" clip-rule="evenodd" d="M47.6504 136.675L48.4018 133.498C47.9584 133.313 47.5268 133.109 47.1087 132.885C46.612 132.604 45.841 132.116 45.5852 131.931C45.3294 131.746 44.9802 131.542 44.9802 131.542C44.9802 131.542 44.994 130.025 44.8545 129.205C44.7151 128.385 44.5803 126.006 44.3475 125.026C44.1147 124.047 43.8392 121.693 43.671 120.812C43.5027 119.931 42.9795 117.255 42.749 116.405C42.5185 115.555 42.0518 113.731 41.8029 112.899C41.5539 112.068 41.2117 110.14 41.131 109.421C41.0503 108.703 40.9409 107.5 40.8625 106.564C40.7841 105.628 40.6873 103.002 40.5675 102.292C40.4476 101.583 40.4453 100.603 40.2528 99.5864C40.0604 98.5699 39.9232 97.9233 39.6513 96.9573C39.3793 95.9914 38.7016 94.4831 38.4228 93.668C38.1439 92.853 37.6944 91.5531 37.5066 91.1051C37.3187 90.6572 36.6445 89.1723 36.6445 89.1723C36.6445 89.1723 36.8393 86.5208 37.0029 85.0621C37.1666 83.6034 37.5043 80.8614 37.661 79.6695C37.8177 78.4777 38.4815 75.4561 38.6844 73.7453C38.8872 72.0344 39.4023 69.3342 39.6685 67.8872C39.9348 66.4403 40.4199 63.3477 40.4199 63.3477L57.8725 64.0721C57.8725 64.0721 58.4603 67.2446 58.8717 68.3644C59.2831 69.4842 60.3964 73.866 60.8597 75.2526C61.323 76.6392 62.4201 80.0415 62.9583 81.949C63.4965 83.8566 63.9955 85.8927 64.2675 86.6045C64.5394 87.3163 64.9728 90.3115 64.9728 90.3115C64.9728 90.3115 64.3135 91.5355 64.0001 92.5326C63.6866 93.5298 62.7808 96.4276 62.5146 97.9194C62.2484 99.4112 61.9222 100.516 62.0029 101.438C62.0836 102.359 62.0386 104.223 62.1181 105.42C62.1977 106.617 62.3141 108.873 62.3348 109.96C62.3556 111.046 62.0755 112.881 61.9049 113.82C61.7344 114.758 61.0902 116.662 60.7214 117.742C60.3526 118.822 59.0872 122.557 58.7887 123.766C58.4903 124.976 57.6029 127.793 57.3194 129.609C57.0359 131.425 56.6763 133.309 56.6049 134.523C56.5334 135.738 56.3986 137.336 56.3986 137.336C56.3986 137.336 55.1551 138.162 54.4959 138.424C53.8367 138.686 52.8191 139.097 51.8752 138.959C50.9314 138.82 50.1731 138.558 49.8308 138.374C49.5237 138.198 49.2321 138.003 48.9584 137.79C48.7236 137.627 48.505 137.449 48.305 137.256C47.9903 136.958 47.6504 136.675 47.6504 136.675Z" fill="#6EA0A1"/>
<path id="Vector_3" fill-rule="evenodd" clip-rule="evenodd" d="M40.4658 63.4043C40.4658 63.4043 40.7551 60.9163 40.8438 60.2376C40.9326 59.5589 41.3555 57.0243 41.42 55.9892C41.4846 54.9541 41.9801 50.5528 42.1184 49.4301C42.2567 48.3074 42.7258 44.7561 42.7938 43.685C42.8617 42.6139 43.5394 37.1074 43.6443 35.748C43.7491 34.3887 43.8379 32.0371 43.9116 30.8686C43.9854 29.7001 43.8943 27.4216 43.8563 26.738C43.8183 26.0544 43.7411 24.7068 43.7411 24.7068C43.7411 24.7068 44.2481 25.5939 44.3588 25.9415C44.4694 26.2891 44.9465 27.1674 45.2139 27.6095C45.4812 28.0516 46.2038 29.1889 46.5254 29.7625C46.8469 30.336 47.4635 31.3613 47.7931 31.7362C48.1226 32.1111 48.5421 32.5892 48.8072 32.7392C49.0723 32.8891 49.4837 33.0761 49.8018 32.9339C50.3721 32.6958 50.8632 32.3414 51.2308 31.9027C51.6918 31.3185 52.3717 30.5395 52.8258 30.0283C53.2798 29.5171 54.1649 28.6115 54.566 27.9123C54.967 27.2132 55.2574 26.7974 55.7011 26.0213C56.0119 25.5075 56.2908 24.9803 56.5366 24.4419C56.7775 23.9054 57.0403 23.2734 57.0403 23.2734C57.0403 23.2734 57.0483 23.9551 57.0149 24.551C56.9815 25.1469 56.9734 26.8607 56.8259 28.0039C56.6784 29.147 56.645 30.2435 56.5954 31.3808C56.5459 32.5181 56.4617 34.49 56.4479 36.4706C56.4341 38.4512 56.1091 41.311 56.0918 42.6782C56.0745 44.0453 55.9362 46.0863 55.9593 47.8244C55.9823 49.5625 56.1771 52.5071 56.3522 53.882C56.5274 55.257 56.8305 57.9474 56.9965 59.1334C57.1624 60.3194 57.9876 64.3108 57.9876 64.3108C57.9876 64.3108 55.9063 64.9992 54.9324 65.2076C53.9586 65.416 51.8208 65.5153 50.6407 65.5426C49.4606 65.5699 46.6441 65.2651 45.6219 65.0859C44.5996 64.9067 43.007 64.4043 42.4342 64.2241C41.8614 64.044 40.4658 63.4043 40.4658 63.4043Z" fill="white"/>
<path id="Vector_4" fill-rule="evenodd" clip-rule="evenodd" d="M36.3473 96.507C36.3473 96.507 35.0093 95.6492 34.5034 95.1584C33.9975 94.6676 33.0433 93.6559 32.4647 93.0278C31.8862 92.3998 31.0703 91.4348 30.5482 90.7327C30.0262 90.0307 28.9106 88.1543 28.9106 88.1543C28.9106 88.1543 29.0512 87.6947 29.3405 86.6732C29.6297 85.6518 30.0515 83.1736 30.199 82.3079C30.3466 81.4423 31.0127 77.8287 31.3319 76.2474C31.6511 74.666 31.945 72.8471 32.278 71.3183C32.6111 69.7895 32.8543 68.7544 33.2588 67.3522C33.6633 65.95 35.0716 60.9849 35.2295 60.0355C35.3874 59.0861 35.9083 57.7356 36.1353 56.2827C36.3623 54.8299 36.7115 53.2641 36.7311 52.6351C36.7507 52.0061 36.9316 49.1637 36.9316 49.1637C36.6924 49.5668 36.508 49.9914 36.3819 50.4296C36.1514 51.2027 36.05 51.8639 35.8656 52.8639C35.6812 53.864 35.6501 54.6916 35.1741 56.0266C34.6982 57.3616 34.3997 58.461 33.8511 60.6217C33.3026 62.7825 32.8992 63.654 32.5512 65.3609C32.2031 67.0679 31.7168 69.1731 31.7168 69.1731C31.7168 69.1731 30.4341 69.6113 29.9593 69.6853C29.4845 69.7593 28.173 69.7301 27.6268 69.5879C27.0805 69.4458 26.502 69.3299 25.9638 69.0436C25.4256 68.7573 24.71 68.14 24.71 68.14C24.71 68.14 24.922 67.6531 25.3761 65.7611C25.8301 63.8692 26.8489 60.8097 27.2534 59.3344C27.6579 57.8592 28.0705 55.5622 28.5338 54.271C28.997 52.9798 29.1941 52.1735 29.7196 50.3604C30.1239 48.923 30.3887 47.4602 30.5114 45.9864C30.6128 44.9562 30.7695 42.0554 30.7061 40.4088C30.6427 38.7622 30.8571 35.8604 30.9608 34.3414C31.0645 32.8224 31.2547 30.907 31.6523 29.9255C32.0499 28.944 32.5097 28.0832 32.9707 27.57C33.4316 27.0568 34.3409 26.3655 35.0981 25.9526C35.8552 25.5398 36.8452 25.2944 37.8847 24.9565C38.9242 24.6186 39.5995 24.5164 40.6425 24.2067C41.6855 23.8971 41.8214 23.9681 42.2951 23.5436C42.7687 23.119 43.0027 22.6857 43.4683 22.2505C43.9339 21.8152 44.6138 21.2037 44.6138 21.2037C44.6138 21.2037 44.8155 21.7412 44.6841 22.0362C44.5527 22.3313 44.3315 22.4335 44.2012 22.7724C44.0055 23.2651 43.8843 23.7769 43.8405 24.2953C43.7714 25.0276 43.8543 27.0218 43.8474 28.8057C43.8405 30.5896 43.761 34.2879 43.5789 35.8449C43.3968 37.4019 43.2044 40.9375 42.7722 43.7565C42.34 46.5755 42.3954 50.3439 41.6647 53.9243C40.9341 57.5048 40.6874 61.0268 40.4408 63.17C40.1942 65.3132 39.2227 70.3445 38.9968 71.9522C38.7709 73.5598 37.9469 78.7577 37.5701 81.008C37.1932 83.2583 36.7818 86.8738 36.7461 88.2331C36.7103 89.5925 36.5248 91.5955 36.4718 93.1019C36.4188 94.6082 36.3473 96.507 36.3473 96.507ZM65.1838 96.9842C65.2612 96.5437 65.3024 96.0993 65.3071 95.654C65.3467 94.5422 65.3197 93.4294 65.2264 92.3199C65.1621 91.1624 65.0035 90.01 64.7516 88.8709C64.4981 87.6177 64.2906 85.6703 63.5623 83.9633C62.8339 82.2563 61.7553 78.1676 61.3726 76.9631C60.99 75.7585 60.0024 72.2024 59.3904 70.3922C58.7785 68.5821 58.4431 66.6579 58.0202 64.8302C57.5972 63.0025 57.2746 60.9518 57.0372 59.4649C56.7997 57.978 56.4045 55.6216 56.2892 54.3917C56.174 53.1619 56.1417 50.8181 56.0299 48.4412C55.9181 46.0643 56.1452 42.4098 56.2293 40.4438C56.3134 38.4779 56.5612 35.5021 56.5266 34.1145C56.492 32.7269 56.5865 31.8866 56.5958 30.2196C56.605 28.5525 56.9507 26.9819 56.9035 25.6819C56.8562 24.382 57.0187 24.3946 56.9403 23.4491C56.862 22.5036 57.0556 22.6322 56.8723 22.0956C56.6891 21.5591 56.5381 21.0586 56.5381 21.0586C56.771 21.2063 56.9764 21.3826 57.1478 21.5815C57.3783 21.8668 57.8128 22.2855 58.1205 22.7071C58.4282 23.1288 58.5353 23.2505 58.9548 23.565C59.3743 23.8795 59.13 23.9097 59.992 24.1736C60.5717 24.3408 61.1722 24.4513 61.7818 24.5027C61.7818 24.5027 67.96 29.2682 68.6008 30.6733C69.2415 32.0784 72.7415 32.0258 73.1356 32.0638C73.5298 32.1018 73.902 32.0989 74.1728 32.4192C74.4437 32.7396 74.091 32.7269 74.5093 33.9772C74.9277 35.2275 75.1213 37.4175 75.6122 39.5509C76.1032 41.6844 76.8246 44.0564 77.0274 45.0555C77.2303 46.0545 77.7466 47.3983 77.6601 48.6651C77.5737 49.932 77.4296 50.6302 77.1899 51.3712C76.9599 52.0521 76.5956 52.6953 76.1124 53.2739C75.6514 53.8445 75.3829 54.1269 75.0648 54.3138C74.7467 54.5008 74.3734 54.5797 73.8455 54.3499C73.3177 54.1201 72.2598 53.678 71.5303 52.9282C70.8008 52.1784 69.9653 51.2806 69.6126 50.4432C69.26 49.6058 69.1217 48.8317 69.0099 48.2649C68.8981 47.6982 68.8336 47.2746 68.5777 46.7741C68.3219 46.2736 68.0153 45.445 67.7065 44.6806C67.3976 43.9162 66.2498 41.3134 66.2498 41.3134C66.2498 41.3134 66.1657 42.2462 66.093 42.7428C66.0204 43.2395 65.6759 45.258 65.4707 46.5404C65.299 47.719 65.2297 48.9065 65.2633 50.0936C65.284 50.9904 65.1607 51.2319 65.473 52.7724C65.7853 54.3128 71.5326 73.8325 71.9037 75.2483C72.2748 76.6641 72.4949 76.9037 73.1714 80.3595C73.8478 83.8153 74.333 85.1104 74.5428 87.2818C74.7525 89.4532 74.809 90.7405 74.809 90.7405C74.809 90.7405 74.4218 91.2362 74.0207 91.6753C73.6197 92.1145 72.2333 93.1077 71.6236 93.5157C71.014 93.9237 69.7474 94.7261 69.0295 95.0873C68.3115 95.4486 67.0991 96.1818 66.8398 96.285C66.5805 96.3882 66.2025 96.6541 65.9582 96.7621C65.7084 96.8554 65.4492 96.9297 65.1838 96.9842Z" fill="#E49A5E"/>
<path id="Vector_5" fill-rule="evenodd" clip-rule="evenodd" d="M39.1966 10.8064C39.812 10.0118 39.9653 8.39148 40.5588 6.6923C40.9115 5.69556 41.4357 4.74804 42.1146 3.88014C43.0135 2.74086 44.1233 1.60548 45.3126 0.999809C46.3125 0.495722 47.4356 0.191621 48.5959 0.110784C49.5271 0.0630702 50.993 1.24422 52.0002 1.12347C53.2092 0.992019 55.0807 1.03292 56.0511 2.08164C56.4475 2.50716 57.8489 3.9113 58.3421 5.12166C58.8342 6.29794 59.8657 9.33406 60.4592 10.2299C61.0527 11.1257 62.9277 13.4676 62.612 14.7198C62.5693 14.9146 62.0127 15.9068 61.2037 16.717C60.8517 17.0643 60.4376 17.363 59.9763 17.6021C59.8738 17.6557 60.2656 18.4132 60.579 18.68C60.9285 18.9642 61.3297 19.1993 61.7672 19.3763C62.4725 19.6294 63.2735 19.7219 64.1032 20.2478C64.8177 20.7006 65.402 21.462 65.795 22.0463C66.1258 22.539 66.1165 23.4222 65.969 23.9937C65.8575 24.4753 65.6092 24.9268 65.2453 25.3093L64.0859 25.4729C64.0859 25.4729 63.5823 24.5157 62.7906 24.2576C61.274 23.763 58.9506 23.7708 58.8412 23.5478C58.3036 22.8084 57.7059 22.1014 57.0526 21.4318C56.5432 20.945 56.2251 21.0005 56.2193 20.9177C56.1882 20.4474 56.1928 19.4493 55.8736 18.9507C55.6673 18.6362 55.1291 18.6839 55.0058 18.6732C50.8882 18.309 46.132 18.2905 46.132 18.2905L45.8785 18.6956C45.8785 18.6956 44.8966 18.7229 44.7445 19.1572C44.514 19.8047 44.8436 21.0365 44.5981 21.239C44.4229 21.3841 43.4676 22.4523 42.7646 23.1271C42.1134 23.7513 41.7158 23.986 41.4612 24.0736C41.4612 24.0736 38.5524 24.7552 36.682 25.3969C34.8116 26.0386 33.9691 26.6209 33.9691 26.6209C33.6698 26.302 33.5026 25.909 33.4932 25.5021C33.4932 25.1924 33.6868 24.8078 33.8919 24.4534C34.1673 23.9791 34.5338 23.4553 35.0443 23.0521C35.5063 22.6988 36.0185 22.3952 36.569 22.1485C36.2058 22.0479 35.8675 21.8918 35.571 21.6879C35.2954 21.4655 35.0718 21.2012 34.9118 20.9089C34.9118 20.9089 35.9882 21.5 37.1441 21.0618C37.8886 20.7794 37.9796 19.8524 37.96 19.6548C37.8725 18.8086 36.7396 18.5836 36.0366 18.0968C35.4212 17.6771 34.7505 16.9701 35.3924 15.6128C35.6332 15.1025 35.979 14.4082 36.3604 13.9769C36.9367 13.3215 37.612 12.9681 38.1652 12.3721C38.6838 11.8152 39.1551 10.857 39.1966 10.8064Z" fill="#A35344"/>
<path id="Vector_6" fill-rule="evenodd" clip-rule="evenodd" d="M46.4863 18.7097C46.4863 18.7097 45.4906 17.8684 44.9409 17.0047C44.4292 16.104 43.9705 14.8235 43.9705 14.8235C43.5473 14.7699 43.143 14.6389 42.7858 14.4398C42.2822 14.1302 41.9561 13.5849 41.9561 13.5849C41.9561 13.5849 43.0232 12.6559 43.664 12.1243C44.4626 11.4495 44.9466 10.8983 45.6151 10.0405C46.5439 8.82524 46.6753 7.27309 48.0168 6.7239C49.9886 5.90109 51.7046 6.60218 51.9558 6.69177C52.207 6.78135 52.9296 6.90404 53.5485 7.59248C54.4347 8.61101 55.0755 9.99762 55.8787 10.986C56.2191 11.3997 56.6259 11.7713 57.0876 12.0902C57.4872 12.3519 57.9174 12.5783 58.3715 12.766C58.2114 13.0718 57.986 13.3501 57.7065 13.5868C57.4394 13.7902 57.1054 13.9199 56.7488 13.9588C56.6146 14.7045 56.4091 15.4398 56.1346 16.1575C55.7197 17.1741 54.7113 18.3971 54.7113 18.3971C54.7113 18.3971 52.5078 20.07 50.8806 20.2872C49.3248 20.4858 46.4863 18.7097 46.4863 18.7097Z" fill="#FFE4CE"/>
<path id="Vector_7" fill-rule="evenodd" clip-rule="evenodd" d="M45.8818 20.8799C45.8818 20.8799 46.0766 19.989 46.0489 19.653C46.0213 19.3171 46.0305 18.1992 46.0305 18.1992L55.0403 17.8633C55.0403 17.8633 55.0299 18.2849 55.0207 18.7698C55.0259 19.1465 55.0602 19.5225 55.1233 19.8955C55.1233 19.8955 55.0668 20.3405 54.1057 20.8799C53.1445 21.4194 52.7746 21.7397 51.9875 21.9588C51.2004 22.1779 50.6045 22.3337 49.943 22.4116C49.2815 22.4895 48.5739 22.5363 48.1199 22.4973C47.6658 22.4584 47.4284 22.4817 47.0942 22.2636C46.76 22.0455 46.5307 21.7008 46.3543 21.5129C46.183 21.3095 46.0253 21.0982 45.8818 20.8799ZM69.4216 37.2855C69.4216 37.2855 69.205 35.4413 69.1082 34.8405C69.0114 34.2397 68.5781 32.782 68.5781 32.782C68.1788 32.7185 67.7953 32.598 67.444 32.4256C66.8678 32.1403 66.2017 31.8413 65.8525 31.6466C65.5033 31.4518 65.0562 31.4518 64.6344 31.4937C64.2126 31.5356 63.7781 31.6359 63.4163 31.5035C63.0544 31.371 62.8135 31.259 62.6096 30.8316C62.4056 30.4041 62.5139 30.1081 62.5139 30.1081C62.5139 30.1081 62.152 29.7312 62.1762 29.4148C62.2004 29.0983 62.4528 28.6708 62.4528 28.6708C62.324 28.4606 62.2616 28.2258 62.2719 27.9892C62.2719 27.551 62.1566 27.48 62.4044 27.2764C62.6522 27.0729 62.8516 26.9298 62.8516 26.9298C62.7816 26.721 62.7452 26.5051 62.7432 26.2881C62.7432 25.9414 63.0555 25.809 63.5142 25.6561C63.9729 25.5033 64.6482 25.4526 65.1657 25.3806C65.6831 25.3085 65.1173 25.2384 65.5045 25.0446C65.8917 24.8509 65.9862 25.0037 66.4322 25.1673C66.8782 25.3309 67.1801 25.4935 68.0237 25.7068C68.8673 25.92 69.0736 25.7993 69.5323 26.1148C69.9909 26.4303 70.0255 26.5422 70.7009 27.256C71.3762 27.9697 71.798 28.6319 72.2693 29.294C72.7407 29.9562 73.0415 30.0477 73.1913 30.7809C73.3411 31.5142 73.3722 31.5658 73.5647 32.3097C73.7571 33.0537 73.9104 33.7869 73.9104 33.7869C73.9104 33.7869 73.038 34.932 72.6658 35.2767C72.2935 35.6214 71.3393 36.4452 71.0143 36.6322C70.6893 36.8191 70.2076 37.1307 69.9771 37.1921C69.7953 37.2359 69.6095 37.2671 69.4216 37.2855Z" fill="#FFE4CE"/>
<path id="Vector_8" fill-rule="evenodd" clip-rule="evenodd" d="M66.4199 75.8579C66.2862 75.5658 66.1111 74.8608 65.9324 74.0653C65.7538 73.2697 65.1834 70.3475 65.022 69.4118C64.8607 68.476 64.4804 65.731 64.2626 64.9744C64.0447 64.2178 63.5423 61.7611 63.4651 60.874C63.3879 59.9869 63.049 57.8281 63.0606 57.1621C63.0721 56.4961 63.0375 55.4279 63.2069 54.9098C63.3763 54.3918 63.6587 54.2827 63.7831 54.014C63.9076 53.7452 63.6379 53.3226 63.5711 52.6235C63.5042 51.9243 63.0848 48.1589 63.0306 47.3838C62.9764 46.6087 62.7828 43.0409 62.8693 41.444C62.9557 39.847 63.0617 37.3231 63.2242 35.8459C63.3867 34.3688 63.3394 32.8779 63.4028 32.4378C63.438 32.1621 63.4321 31.8837 63.3855 31.6092C63.4853 31.6695 63.6033 31.7045 63.7257 31.7102C63.8482 31.7159 63.9701 31.692 64.077 31.6413L64.7466 31.3005C64.7466 31.3005 64.8745 31.3424 64.848 32.1623C64.8215 32.9821 64.7086 35.3513 64.5841 37.3396C64.4596 39.328 64.3709 41.3592 64.3905 42.8471C64.4101 44.335 64.3282 45.671 64.5576 47.5259C64.7869 49.3809 64.7731 50.3868 65.0462 51.5894C65.3193 52.7919 65.5798 53.3703 65.5798 53.3703C65.5798 53.3703 65.7573 53.3041 66.451 53.0938C67.1448 52.8835 68.4102 52.6634 69.1155 52.5242C69.8208 52.3849 70.8488 52.2204 70.8488 52.2204C70.8488 52.2204 71.4803 52.8942 71.8779 53.1775C72.2755 53.4609 73.4279 54.2107 73.4279 54.2107C73.4279 54.2107 74.1056 55.2935 74.5239 56.0949C74.9423 56.8963 76.9256 61.0454 77.4776 62.2538C78.0296 63.4622 79.6673 67.2705 80.1732 68.4429C80.4629 69.1031 80.6853 69.7829 80.8382 70.4751C80.8382 70.4751 80.5201 71.0321 79.3884 71.7945C78.2567 72.557 76.8207 73.4694 75.8469 73.8968C74.8731 74.3243 74.0733 74.6836 73.5109 74.8375C72.9485 74.9913 72.1775 75.0166 71.5103 75.1072C70.843 75.1977 70.1124 75.2961 69.6318 75.4324C69.1512 75.5687 68.3964 75.7908 68.038 75.9193C67.6795 76.0478 67.305 76.1997 67.0469 76.2504C66.7887 76.301 66.5525 76.154 66.4199 75.8579ZM64.258 25.458L62.9903 25.7911C62.9903 25.7911 62.6192 25.273 62.2515 25.0121C61.8839 24.7511 61.5255 24.5252 61.1729 24.4619C60.7737 24.3914 60.3794 24.3026 59.9916 24.1961C59.6908 24.1216 59.4164 23.9855 59.193 23.7998C58.9924 23.6186 59.4096 23.6401 59.7438 23.679C60.078 23.718 60.9504 23.7764 61.2558 23.8338C61.5612 23.8913 62.096 23.9312 62.4083 24.049C62.6978 24.1559 62.9691 24.2951 63.215 24.4629C63.402 24.5784 63.5785 24.7056 63.7428 24.8436C63.9276 25.0403 64.0996 25.2454 64.258 25.458Z" fill="#8F7470"/>
<path id="Vector_9" fill-rule="evenodd" clip-rule="evenodd" d="M43.79 24.907L43.8776 23.6149C43.9077 23.3201 43.9853 23.0302 44.1081 22.7531C44.1853 22.5866 44.4539 22.5418 44.5772 22.2594C44.7005 21.9771 44.6601 21.6178 44.6256 21.3879C44.591 21.1581 44.5495 20.4142 44.5495 20.1571C44.5495 19.9001 44.576 19.4317 44.7281 19.1707C44.7836 19.058 44.8672 18.9567 44.9732 18.8737C45.0792 18.7906 45.2051 18.7279 45.3424 18.6897C45.627 18.603 45.9901 18.7121 45.9901 18.7121C46.0792 18.8917 46.1231 19.0851 46.1191 19.2798C46.0892 19.532 46.065 20.0072 45.9866 20.2535C45.9012 20.4911 45.9221 20.7468 46.0454 20.9722C46.2082 21.32 46.4261 21.6475 46.6931 21.9459C47.025 22.2906 47.2693 22.2711 47.7164 22.349C48.3614 22.4583 49.0232 22.4777 49.6756 22.4065C50.4189 22.3091 51.8767 22.0306 52.4034 21.8086C52.9301 21.5866 53.7437 21.2594 54.2116 20.8845C54.6795 20.5096 54.8581 20.3149 55.0183 20.1055C55.1785 19.8962 54.971 19.5145 54.971 19.5145L55.0298 18.7355C55.0298 18.7355 55.606 18.7666 55.8504 18.8845C56.0947 19.0023 56.2387 19.3645 56.2376 19.6255C56.2364 19.8864 56.2687 20.3071 56.2756 20.6557C56.2825 21.0043 56.067 21.1786 56.3252 21.3373C56.5833 21.496 56.6859 21.3217 56.7861 21.6733C56.9135 22.0766 56.9907 22.4901 57.0166 22.907C57.0166 23.2663 57.0904 23.2897 56.8311 23.8759C56.5718 24.462 56.2952 24.9538 56.0244 25.5001C55.5715 26.3918 55.0354 27.2517 54.4213 28.0717C53.7299 28.9666 53.0188 29.9841 52.3031 30.7553C51.5875 31.5265 51.2659 32.0641 50.7289 32.4C50.1919 32.7359 49.9084 32.8469 49.5903 32.9034C49.2722 32.9599 48.6683 32.5675 48.28 32.1536C47.8916 31.7398 47.4329 31.2588 47.0492 30.6327C46.6654 30.0065 45.937 28.8098 45.7123 28.3629C45.4876 27.9159 45.037 27.3112 44.7327 26.6734C44.4285 26.0356 44.1634 25.6023 44.0712 25.3988C43.9873 25.231 43.8934 25.0669 43.79 24.907Z" fill="#F68F80"/>
<path id="Vector_10" fill-rule="evenodd" clip-rule="evenodd" d="M1.87739 138.546C1.53046 138.372 1.26456 138.102 1.12368 137.782C0.878213 137.239 0.699585 136.869 0.547462 136.428C0.39534 135.988 0.177527 135.411 0.136039 134.879C0.0945511 134.348 0.0957063 131.861 0.0957063 131.861L0.83442 131.745C1.14876 131.72 1.46509 131.72 1.77943 131.745C2.08022 131.792 3.35366 132.405 3.83308 132.81C4.3125 133.215 5.33126 134.014 6.02272 134.707C6.71419 135.4 7.50247 136.107 7.85857 136.627C8.21468 137.147 8.46129 137.553 8.59728 137.958C8.73327 138.363 8.85773 138.64 8.52929 138.737C8.20084 138.835 8.07753 138.841 7.46097 138.853C6.84441 138.865 5.80376 138.841 5.80376 138.841C5.80376 138.841 5.17453 139.072 4.83225 139.21C4.6854 139.275 4.519 139.301 4.35462 139.284C4.19024 139.268 4.03545 139.21 3.9103 139.119C3.71074 138.971 3.53174 138.804 3.37672 138.621L1.87739 138.546Z" fill="#8F7470"/>
<path id="Vector_11" fill-rule="evenodd" clip-rule="evenodd" d="M2.82129 138.613L3.38253 138.602C3.38253 138.602 3.68332 139.018 4.06709 139.168C4.45085 139.318 4.64331 139.308 4.98904 139.168C5.33477 139.029 5.82341 138.787 5.82341 138.787C5.82341 138.787 5.79691 139.388 5.78308 139.654C5.76925 139.92 5.76925 140.336 5.53645 140.498C5.30366 140.661 5.15384 140.888 4.79773 140.962C4.44163 141.036 4.12585 141.088 3.7709 140.95C3.41595 140.812 3.15435 140.649 3.01721 140.36C2.88007 140.071 2.86624 139.897 2.85241 139.562C2.83858 139.227 2.82129 138.613 2.82129 138.613Z" fill="#65514E"/>
<path id="Vector_12" fill-rule="evenodd" clip-rule="evenodd" d="M30.4746 138.45C30.4746 138.45 30.576 137.696 30.8054 137.253C31.0347 136.81 31.7895 135.932 32.4061 135.272C33.0227 134.611 34.613 133.221 35.422 132.654C36.2311 132.087 36.6724 131.875 37.1691 131.729C37.6659 131.583 38.4103 131.69 38.4103 131.69L38.2075 137.231C38.2075 137.231 38.0657 137.809 37.9009 138.038C37.7188 138.25 37.5131 138.448 37.2867 138.627L35.8692 138.557C35.8692 138.557 35.1143 139.245 34.8896 139.266C34.6023 139.28 34.3179 139.212 34.0829 139.071C33.8524 138.921 33.3741 138.691 33.3741 138.691L31.2997 138.886L30.4746 138.45Z" fill="#8F7470"/>
<path id="Vector_13" fill-rule="evenodd" clip-rule="evenodd" d="M33.4482 138.757C33.7073 138.904 33.9767 139.038 34.255 139.157C34.5615 139.274 34.8531 139.345 35.1458 139.216C35.4385 139.087 35.9525 138.605 35.9525 138.605L36.4262 138.64L36.4112 139.991C36.4112 139.991 36.0919 140.602 35.8269 140.731C35.5618 140.861 34.9937 140.967 34.9937 140.967C34.9937 140.967 34.5327 140.954 34.2423 140.791C33.9519 140.627 33.5888 140.309 33.5197 140.062C33.4505 139.816 33.492 139.673 33.4771 139.439C33.4621 139.205 33.4482 138.757 33.4482 138.757Z" fill="#65514E"/>
<path id="Vector_14" fill-rule="evenodd" clip-rule="evenodd" d="M11.1515 105.745L31.7457 105.763L32.2148 106.055L32.2505 107.347L31.725 107.813L11.276 107.841L10.7217 107.368L10.7286 106.13L11.1515 105.745ZM17.2019 95.8864L17.5476 95.4531L26.4675 95.5154L26.728 95.8767L26.7383 96.7599L26.3523 97.0773L17.528 97.0686L17.203 96.6275L17.2019 95.8864Z" fill="#8F7470"/>
<path id="Vector_15" fill-rule="evenodd" clip-rule="evenodd" d="M10.7758 105.864L10.7285 101.168L11.1641 100.74C11.1641 100.74 12.3396 100.663 13.2904 100.576C14.2412 100.488 19.426 100.447 20.8769 100.417C22.3279 100.387 25.8843 100.598 26.5539 100.549C27.2234 100.501 31.786 100.754 31.786 100.754L32.247 101.194L32.2135 105.771L10.7758 105.864Z" fill="#DFDFDF"/>
<path id="Vector_16" fill-rule="evenodd" clip-rule="evenodd" d="M16.4145 75.243C16.4145 75.243 17.8459 75.0804 18.3737 75.0482C18.9015 75.0161 20.5633 74.9333 20.5633 74.9333L23.2946 74.8915C24.2396 74.8788 26.9698 75.0112 27.8168 75.1037C28.6639 75.1962 30.9745 75.4426 30.9745 75.4426L31.3202 75.8321L31.3099 76.7464L30.6484 77.0931C30.6484 77.0931 29.1502 76.838 28.7284 76.838C28.3066 76.838 24.0103 76.5994 22.8659 76.6208C21.7215 76.6423 18.9926 76.6491 18.3599 76.7455C17.7272 76.8419 16.6012 76.8896 16.6012 76.8896L16.002 76.5975V75.5926L16.4145 75.243Z" fill="#8F7470"/>
<path id="Vector_17" fill-rule="evenodd" clip-rule="evenodd" d="M20.172 77.0558C20.1335 76.8208 20.1304 76.5826 20.1628 76.3469C20.2204 76.011 20.5085 74.9058 20.6687 74.6108C20.8289 74.3157 21.1159 73.8318 21.4904 73.4861C21.865 73.1404 23.324 72.2923 23.6628 72.0469C24.1174 71.7274 24.5506 71.3867 24.9604 71.0264C25.2269 70.781 25.424 70.4877 25.5366 70.1685C25.6876 69.7975 25.9769 69.0195 25.9769 69.0195C25.9769 69.0195 27.0682 69.3662 27.5903 69.5249C28.0559 69.6668 28.5504 69.7287 29.0447 69.707C29.4642 69.6856 30.2317 69.6427 30.2317 69.6427C30.2317 69.6427 30.3043 70.3896 30.2997 71.0566C30.2951 71.7665 30.2215 72.4748 30.0796 73.1745C29.9528 73.7023 29.7442 74.2456 29.3881 74.5708C29.032 74.8961 28.6966 75.008 27.9948 74.9905C27.293 74.973 27.331 74.9214 26.6119 74.7763C25.8928 74.6312 25.9573 74.602 25.2935 74.6137C24.6297 74.6254 24.4142 74.5504 23.831 74.5718C23.2479 74.5932 23.0243 74.3683 22.5875 74.7003C22.1508 75.0324 22.1669 75.0684 21.8961 75.5543C21.6252 76.0402 21.608 76.2574 21.4028 76.5388C21.1977 76.8202 21.0191 76.8611 20.8105 76.9964C20.6019 77.1318 20.172 77.0558 20.172 77.0558Z" fill="#FFE4CE"/>
<path id="Vector_18" fill-rule="evenodd" clip-rule="evenodd" d="M21.8857 76.6154L22.9552 76.5862C23.1359 76.3929 23.283 76.1788 23.392 75.9503C23.528 75.63 23.7377 75.3271 23.9279 75.1918C24.118 75.0564 24.2874 74.9737 24.3658 75.1762C24.4297 75.3291 24.5067 75.4778 24.5963 75.6212C24.7836 75.5379 24.9649 75.4452 25.1391 75.3437C25.388 75.1937 25.7084 75.0282 25.8017 75.1811C25.8631 75.3202 25.8928 75.4679 25.8893 75.6163C25.9987 75.5242 26.1248 75.4473 26.2627 75.3885C26.4817 75.2979 26.6211 75.5199 26.7122 75.6602C26.8032 75.8004 26.8701 75.7702 27.1732 75.778C27.4762 75.7858 27.6825 76.0701 27.7401 76.3369C27.7921 76.588 27.8006 76.8442 27.7655 77.0974C27.7367 77.3827 27.7747 77.5911 27.4198 77.779C27.0648 77.967 26.9738 78.0507 26.6649 78.0088C26.3561 77.967 26.4529 78.188 26.1221 78.1559C25.7914 78.1237 25.7937 78.0585 25.3304 77.9708C24.8671 77.8832 24.7542 77.9299 24.42 77.891C24.0858 77.852 24.1722 77.779 23.8368 77.6846C23.5015 77.5901 23.3482 77.6846 23.1039 77.596C22.9002 77.5159 22.7194 77.3996 22.5737 77.2551C22.3997 77.1052 22.1427 76.9309 22.0771 76.8355C22.018 76.7593 21.9541 76.6858 21.8857 76.6154Z" fill="#FFE4CE"/>
<path id="Vector_19" fill-rule="evenodd" clip-rule="evenodd" d="M14.3027 105.786L16.9534 76.8279L18.3167 76.7539L15.8055 105.771L14.3027 105.786ZM26.9116 105.753L29.4896 76.9302L30.5752 77.0197L30.4243 81.0121L29.0148 88.0814L29.727 89.4749L28.3741 105.727L26.9116 105.753Z" fill="#DFDFDF"/>
<path id="Vector_20" fill-rule="evenodd" clip-rule="evenodd" d="M47.2298 135.32C47.2379 135.892 47.2044 136.463 47.1295 137.031C47.0143 137.703 46.9428 138.633 46.8483 139.231C46.7494 139.788 46.6898 140.349 46.6697 140.912C46.6535 141.541 46.6144 142.29 46.7181 142.617C46.8218 142.943 46.9566 143.427 47.3012 143.73C47.5271 143.923 47.7853 144.087 48.0676 144.216L47.685 146.4C47.4537 146.4 47.2298 146.331 47.0534 146.205C46.7757 145.993 46.173 145.6 45.9529 145.273C45.7327 144.946 45.644 144.843 45.7316 144.269C45.8192 143.694 46.06 142.473 46.1568 142.084C46.2536 141.694 46.4922 141.172 46.4553 140.542C46.4184 139.912 46.3159 139.445 46.3032 138.857C46.2905 138.269 46.2963 137.793 46.4438 137.287C46.5913 136.782 46.7215 136.363 46.8264 136.099C46.9313 135.835 47.2298 135.32 47.2298 135.32ZM46.4715 151.627C46.4715 151.627 46.5395 150.555 46.6651 150.069C46.7907 149.582 47.0604 148.797 47.2079 148.181C47.3554 147.564 47.5916 146.587 47.5916 146.587L54.1606 148.332C54.1606 148.332 54.3611 149.422 54.4752 149.814C54.613 150.278 54.7002 150.751 54.7356 151.228C54.7552 151.67 54.7564 152.157 54.4487 152.582C54.141 153.006 53.7388 153.482 53.0266 153.799C52.4792 154.037 51.8984 154.216 51.2979 154.331C50.9671 154.395 50.1097 154.179 49.4851 153.844C48.8605 153.509 47.7253 152.934 47.4637 152.725C47.2021 152.516 46.8448 152.226 46.8448 152.226L46.4715 151.627Z" fill="#F67C60"/>
<path id="Vector_21" fill-rule="evenodd" clip-rule="evenodd" d="M45.7599 144.414C45.7599 144.414 45.6907 144.901 45.9224 145.14C46.154 145.38 47.5185 146.38 47.5185 146.38L47.4332 147.142C47.4332 147.142 46.8213 146.768 46.5113 146.431C46.2012 146.094 45.8198 145.833 45.723 145.612C45.6262 145.391 45.5582 145.208 45.5789 145.007C45.6203 144.806 45.6808 144.607 45.7599 144.414ZM46.5885 150.375C46.5885 150.375 46.4813 151.389 46.5885 151.679C46.6957 151.969 47.1555 152.445 47.6868 152.848C48.218 153.25 49.2621 153.737 49.6805 153.893C50.0828 154.047 50.5005 154.171 50.9286 154.262C51.408 154.369 51.7353 154.336 52.2885 154.068C52.8416 153.799 52.9799 153.794 53.4582 153.446C53.9365 153.097 54.1381 152.992 54.4343 152.599C54.7305 152.207 54.7167 151.986 54.8042 151.678C54.8918 151.37 54.9506 151.847 55.0221 152.222C55.0935 152.596 55.2744 152.597 54.6441 153.266C54.0137 153.935 53.7774 154.226 53.0952 154.558C52.4129 154.891 52.1225 154.988 51.5682 155.035C51.0139 155.081 50.2348 154.872 49.7335 154.669C49.2322 154.465 48.4255 154.137 48.0048 153.879C47.5842 153.621 46.9676 153.253 46.6841 152.913C46.4006 152.573 46.3649 152.507 46.3649 152.507C46.3649 152.507 46.3591 152.427 46.3234 152.108C46.2877 151.788 46.3695 151.613 46.4271 151.279C46.4848 150.945 46.5885 150.375 46.5885 150.375Z" fill="white"/>
<path id="Vector_22" fill-rule="evenodd" clip-rule="evenodd" d="M47.249 132.984L47.9255 133.316L48.3864 133.414L47.695 136.562C47.695 136.562 48.1456 137.061 48.3231 137.244C48.5005 137.426 49.0076 137.875 49.0076 137.875C49.0076 137.875 50.0448 138.45 50.4297 138.626C50.8146 138.802 51.7066 138.902 52.0501 138.948C52.3935 138.993 53.4906 138.841 53.4906 138.841C53.4906 138.841 53.4526 140.165 53.4111 140.677C53.3696 141.189 53.3581 142.838 53.3984 143.68C53.4552 144.455 53.5672 145.227 53.7338 145.992C53.849 146.561 53.9516 147.424 54.1141 147.947C54.2766 148.47 54.2547 148.774 54.2293 149.192C54.204 149.611 54.0173 150.192 53.7684 150.412C53.5194 150.632 53.1506 151.034 52.6827 151.158C52.2149 151.283 50.7109 151.267 50.2038 151.224C49.6968 151.18 48.8463 150.864 48.5017 150.604C48.1571 150.344 47.5797 149.469 47.4875 149.027C47.3901 148.445 47.3959 147.854 47.5048 147.274C47.6201 146.737 47.8079 146.028 47.8817 145.409C47.9554 144.791 48.0764 144.307 48.0764 144.307C48.0764 144.307 47.4276 143.945 47.2133 143.595C46.9989 143.246 46.6463 142.438 46.6221 141.889C46.5979 141.34 46.6923 140.202 46.7477 139.621C46.803 139.041 46.9977 137.809 47.0934 137.284C47.1891 136.76 47.2893 135.672 47.3239 135.254C47.3522 134.843 47.3522 134.431 47.3239 134.019C47.2962 133.694 47.249 132.984 47.249 132.984Z" fill="#FFE4CE"/>
</g>
</svg>
